<svg xmlns="http://www.w3.org/2000/svg" width="34.419" height="38.239" viewBox="0 0 34.419 38.239">
  <g id="Gruppe_3591" data-name="Gruppe 3591" transform="translate(-424.585 -365.061)">
    <path id="Pfad_11104" data-name="Pfad 11104" d="M11.509,0A4.987,4.987,0,1,0,16.5,4.986,4.987,4.987,0,0,0,11.509,0" transform="translate(430.285 365.061)" fill="#e3437a"/>
    <path id="Pfad_11105" data-name="Pfad 11105" d="M20.412,13.125a4.987,4.987,0,1,0-6.763-2,4.986,4.986,0,0,0,6.763,2" transform="translate(435.983 368.341)" fill="#fd9ebf"/>
    <path id="Pfad_11107" data-name="Pfad 11107" d="M3.688,10.175c3.422-.907,5.1.213,6,3.633a6.112,6.112,0,0,0,1.293,2.249c2.505,2.5,2.5,4.578,0,7.081l7.053-7.081a8.339,8.339,0,0,0,.785-1.021A4.986,4.986,0,0,0,13.232,7.71l0,0c-9.776,2.543-9.718,2.515-9.665,2.5Z" transform="translate(427.282 371.652)" fill="#c91251"/>
    <path id="Pfad_11108" data-name="Pfad 11108" d="M15.036,19.165c-2.5-2.5-2.5-4.576,0-7.079L7.983,19.165a4.986,4.986,0,1,0,7.053,0" transform="translate(430.285 375.622)" fill="#e61e63"/>
    <path id="Pfad_11110" data-name="Pfad 11110" d="M9.809,7.463h0a4.987,4.987,0,1,0-7.327,5.59,4.146,4.146,0,0,0,1.755.566A5.217,5.217,0,0,0,6.1,13.573l9.83-2.556c-3.422.909-5.215-.133-6.122-3.555" transform="translate(424.585 368.341)" fill="#e61e63"/>
    <path id="Pfad_11111" data-name="Pfad 11111" d="M7.368,20.756a4.987,4.987,0,1,0-6.763-2,4.986,4.986,0,0,0,6.763,2" transform="translate(424.585 375.01)" fill="#e3437a"/>
  </g>
</svg>